<svg width="238" height="75" viewBox="0 0 238 75" fill="none" xmlns="http://www.w3.org/2000/svg">
<path fill-rule="evenodd" clip-rule="evenodd" d="M17.0547 21.9554C16.1673 15.844 18.2528 2.53339 31.8309 0.0473557C37.0225 -0.418788 48.7635 2.34693 49.935 17.7603H54.3279C56.9459 21.6447 61.676 32.521 59.6526 44.9511H70.3021V2.06726C70.7902 1.135 72.0593 -0.17016 73.2307 2.06726V73.6958C72.787 74.6798 71.58 76.0575 70.3021 73.6958V47.7479H58.987C57.3896 55.9311 49.5357 72.7635 31.5647 74.4726C23.4444 75.2449 5.44679 70.495 0.0155579 47.7479C-0.0731878 46.8156 0.1753 44.9511 1.87922 44.9511H57.1234C58.0552 40.8078 58.5078 30.0972 52.8636 20.4017H48.8701C48.4707 20.3499 47.6986 19.9355 47.8051 18.6925C47.5833 13.2026 44.1577 2.28479 32.2303 2.53339C27.5711 3.20669 18.4392 7.94048 19.1847 21.4893C18.9184 22.1626 18.1196 23.1984 17.0547 21.9554ZM56.4578 47.7479H2.81109C8.02933 68.3819 24.1544 72.2974 31.5647 71.6758C47.4324 70.6814 54.7717 55.3095 56.4578 47.7479Z" fill="white"/>
<path d="M87.4171 48.3378C86.3412 46.6858 85.4447 47.6495 85.1309 48.3378V61.9978C86.5295 72.2905 93.8726 74.7578 97.3692 74.7048C106.299 75.086 109.339 66.3923 109.742 61.9978H111.087V74.2283C112.163 75.6261 113.149 74.8107 113.508 74.2283V46.5905C112.539 44.8116 111.49 45.8493 111.087 46.5905V59.4564H108.532C107.779 59.4564 107.411 60.0918 107.321 60.4094C106.891 70.0668 100.507 72.1634 97.3692 72.0046C90.5911 71.7504 87.9103 65.2275 87.4171 61.9978V48.3378Z" fill="white"/>
<path d="M146.36 66.7586C146.038 64.6473 144.616 65.3614 143.946 65.9824C141.37 71.4467 136.702 72.5023 134.69 72.3471C127.607 72.3471 124.338 66.2864 123.534 63.4986C121.924 53.0666 127.759 48.3888 130.934 47.3539C133.724 46.4846 136.568 46.9917 137.641 47.3539C143.651 49.9619 145.332 56.3059 145.421 59.1519C145.421 60.1455 145.779 60.4973 145.958 60.5491H149.043C151.082 60.6733 151.681 60.2903 151.726 60.0834V37.5739H165.811C166.481 40.0577 168.046 40.5752 169.03 40.6787C171.284 40.8029 172.428 38.9711 172.652 38.0396H190.224V62.8776C190.868 69.9565 195.501 73.4855 197.736 74.3652C199.239 74.7378 201.045 74.7274 201.76 74.6757C203.048 74.5515 204.354 74.1065 204.846 73.8995C205.382 72.7818 204.712 72.1919 204.309 72.0367C202.056 72.5334 199.614 72.1401 198.675 71.8814C194.383 70.6395 192.773 65.3614 192.505 62.8776V38.0396H198.139C199.641 36.5494 198.765 35.2453 198.139 34.7796H192.505V1.5588C192.505 0.192711 191.7 -0.0453198 191.297 0.00642609C190.332 0.00642609 190.18 1.04134 190.224 1.5588H187.139C185.851 2.55232 186.603 3.73213 187.139 4.19784H190.224V34.7796H172.652C172.008 32.7926 170.103 32.0834 169.164 32.1406C167.125 32.2648 166.079 33.9517 165.811 34.7796H151.726V10.8731C150.009 1.18625 141.978 0.420408 138.178 1.24834C136.568 2.49024 137.507 3.62864 138.178 4.0426C145.69 2.05556 148.819 8.07878 149.445 11.3388V34.7796H145.153C143.865 36.0215 144.616 37.1599 145.153 37.5739H149.445V57.91H147.567C145.421 44.2491 135.584 43.3177 130.934 44.5596C121.061 47.6643 120.18 58.3693 121.119 63.4986C123.534 73.1233 131.292 75.1931 134.69 74.9861C141.236 74.9861 145.198 69.5011 146.36 66.7586Z" fill="white"/>
<path d="M168.234 44.5946H163.633C162.897 44.9708 162.889 45.9007 162.976 46.3186C163.081 46.9455 163.458 47.3112 163.633 47.4157H167.051C167.051 47.9172 167.013 58.8569 167.013 64.4991C167.644 68.6368 169.861 71.5519 170.825 72.3355C173.191 74.9999 178.185 74.9999 180.326 74.9999C181.077 74.6865 181.246 74.2163 181.246 73.7461C181.246 72.7962 180.677 72.7012 180.326 72.649C179.368 72.8057 177.259 72.649 176.252 72.4923C170.679 71.1131 169.198 66.1709 169.154 63.8722V46.7888C169.259 45.4096 168.584 44.7513 168.234 44.5946Z" fill="white"/>
<path d="M236.94 74.7853C236.202 74.9077 235.842 74.2242 235.754 73.8672V60.5544H234.042C233.937 62.7579 233.208 65.4511 232.856 66.5222C231.486 70.4395 227.192 73.3571 225.216 74.3263C219.315 76.2849 214.59 73.5101 212.965 71.8779C208.328 67.9606 207.608 61.6766 207.828 59.0242C207.722 53.8827 210.945 49.4349 212.57 47.8537C216.522 44.0075 222.538 44.2833 225.216 45.0994C229.748 47.058 232.022 50.8121 232.593 52.4443C233.014 53.7909 232.593 54.2296 232.329 54.2806C232.013 54.7702 231.056 54.4846 230.617 54.2806C228.299 47.5477 222.098 46.7826 219.288 47.2416C214.124 48.221 211.428 53.3625 210.726 55.8108C208.197 65.2368 214.326 70.4497 217.707 71.8779C222.344 73.5917 225.963 71.5719 227.192 70.3477C230.88 67.777 231.978 62.7477 232.066 60.5544V59.0242C232.171 58.1673 232.9 57.8511 233.252 57.8H236.94C237.888 58.1673 238.038 58.7692 237.994 59.0242V73.8672C237.783 74.6017 237.203 74.7853 236.94 74.7853Z" fill="white"/>
</svg>
