<svg width="36" height="31" viewBox="0 0 36 31" fill="none" xmlns="http://www.w3.org/2000/svg">
<path d="M1.93675 30.21C4.28342 28.01 6.11676 25.5533 7.43676 22.84C8.8301 20.1267 9.52675 17.6333 9.52675 15.36C8.79342 15.6533 7.98676 15.8 7.10676 15.8C5.12676 15.8 3.47675 15.1033 2.15675 13.71C0.836758 12.3167 0.176758 10.52 0.176758 8.32002C0.176758 5.97335 0.910091 4.10335 2.37675 2.71002C3.84342 1.24334 5.71342 0.51001 7.98675 0.51001C10.4801 0.51001 12.4601 1.28001 13.9268 2.82002C15.3934 4.36002 16.1268 6.30335 16.1268 8.65001C16.1268 13.27 15.2468 17.45 13.4868 21.19C11.7268 24.8567 9.45343 27.79 6.66676 29.99C5.93343 30.5033 5.05342 30.76 4.02675 30.76C3.07342 30.76 2.37675 30.5767 1.93675 30.21ZM21.6268 30.21C23.9734 28.01 25.8068 25.5533 27.1268 22.84C28.5201 20.1267 29.2168 17.6333 29.2168 15.36C28.4834 15.6533 27.6768 15.8 26.7968 15.8C24.8168 15.8 23.1668 15.1033 21.8468 13.71C20.5268 12.3167 19.8668 10.52 19.8668 8.32002C19.8668 5.97335 20.6001 4.10335 22.0668 2.71002C23.5334 1.24334 25.4034 0.51001 27.6768 0.51001C30.1701 0.51001 32.1501 1.28001 33.6168 2.82002C35.0834 4.36002 35.8168 6.30335 35.8168 8.65001C35.8168 13.27 34.9368 17.45 33.1768 21.19C31.4168 24.8567 29.1434 27.79 26.3568 29.99C25.6234 30.5033 24.7434 30.76 23.7168 30.76C22.7634 30.76 22.0668 30.5767 21.6268 30.21Z" fill="#EECC96"/>
</svg>
