<svg width="36" height="31" viewBox="0 0 36 31" fill="none" xmlns="http://www.w3.org/2000/svg">
<path d="M14.3668 1.16999C11.9468 3.37 10.0768 5.82666 8.75675 8.54C7.43675 11.2533 6.77675 13.7467 6.77675 16.02C7.36342 15.7267 8.17009 15.58 9.19675 15.58C11.1768 15.58 12.8268 16.2767 14.1468 17.67C15.4668 19.0633 16.1268 20.8233 16.1268 22.95C16.1268 25.2967 15.3568 27.2033 13.8168 28.67C12.3501 30.1367 10.4801 30.87 8.20675 30.87C5.71342 30.87 3.73342 30.1 2.26675 28.56C0.873424 27.02 0.176758 25.0767 0.176758 22.73C0.176758 18.11 1.02009 13.93 2.70675 10.19C4.46675 6.44999 6.77676 3.51666 9.63675 1.38999C10.2234 0.87666 11.1034 0.619995 12.2768 0.619995C13.2301 0.619995 13.9268 0.803328 14.3668 1.16999ZM34.0568 1.16999C31.6368 3.37 29.7668 5.82666 28.4468 8.54C27.1268 11.2533 26.4668 13.7467 26.4668 16.02C27.0534 15.7267 27.8601 15.58 28.8868 15.58C30.8668 15.58 32.5168 16.2767 33.8368 17.67C35.1568 19.0633 35.8168 20.8233 35.8168 22.95C35.8168 25.2967 35.0468 27.2033 33.5068 28.67C32.0401 30.1367 30.1701 30.87 27.8968 30.87C25.4034 30.87 23.4234 30.1 21.9568 28.56C20.5634 27.02 19.8668 25.0767 19.8668 22.73C19.8668 18.11 20.7101 13.93 22.3968 10.19C24.1568 6.44999 26.4668 3.51666 29.3268 1.38999C29.9134 0.87666 30.7934 0.619995 31.9668 0.619995C32.9201 0.619995 33.6168 0.803328 34.0568 1.16999Z" fill="#EECC96"/>
</svg>
